# xmcd
#
# Track frame offsets: 
#        150
#        13895
#        27241
#        37253
#        52358
#        65548
#        80578
#        90131
#        105751
#        122630
#        135316
#
# Disc length: 1952 seconds
#
# Revision: 0
# Processed by: cddbd v1.5.2PL0 Copyright (c) Steve Scherf et al.
# Submitted via: ExactAudioCopy v1.0b1
#
DISCID=8a079e0b
DTITLE=Nicolas Jules - Shaker
DYEAR=2009
DGENRE=Blues
TTITLE0=L'amicale des joueurs de luth
TTITLE1=Le p'tit soleil
TTITLE2=Bétonneuse
TTITLE3=Un joli bruit de moteur
TTITLE4=Un joli bruit de moteur
TTITLE5=Fille de mes fièvres
TTITLE6=Vilains diamants
TTITLE7=Par le trou des voyelles
TTITLE8=Des kilomètres
TTITLE9=la bourse
TTITLE10=Klaxon
EXTD=
EXTT0=
EXTT1=
EXTT2=
EXTT3=
EXTT4=
EXTT5=
EXTT6=
EXTT7=
EXTT8=
EXTT9=
EXTT10=
PLAYORDER=
